<svg width="512" height="512" viewBox="0 0 512 512" fill="none" xmlns="http://www.w3.org/2000/svg">
<rect width="512" height="512" rx="120" fill="url(#paint0_linear)"/>
<path d="M352 144H160V208H352V144Z" fill="white" fill-opacity="0.9"/>
<path d="M384 208H128C110.327 208 96 222.327 96 240V336C96 353.673 110.327 368 128 368H160V416C160 424.837 167.163 432 176 432H336C344.837 432 352 424.837 352 416V368H384C401.673 368 416 353.673 416 336V240C416 222.327 401.673 208 384 208ZM320 400H192V304H320V400Z" fill="white"/>
<circle cx="432" cy="144" r="32" fill="#38bdf8"/>
<circle cx="80" cy="144" r="32" fill="#38bdf8"/>
<circle cx="256" cy="80" r="32" fill="#38bdf8"/>
<defs>
<linearGradient id="paint0_linear" x1="256" y1="0" x2="256" y2="512" gradientUnits="userSpaceOnUse">
<stop stop-color="#2563EB"/>
<stop offset="1" stop-color="#1E40AF"/>
</linearGradient>
</defs>
</svg>
